<svg viewBox="0 0 180 31" fill="none" xmlns="http://www.w3.org/2000/svg"><g clip-path="url(#a)"><path d="M117.493 1.348h-14.671c-.123 0-.247.13-.247.26-.37 7.044-1.602 14.61-3.452 20.74v.26c.123.131.123.131.247.131h5.055c.123 0 .246-.13.246-.13 1.356-4.696 2.589-10.957 2.959-16.174h4.808v16.174c0 .13.124.26.247.26h4.808c.123 0 .247-.13.247-.26V1.739c0-.26-.124-.391-.247-.391Zm62.26 0h-4.808c-.123 0-.246.13-.246.26v16.044c-1.11.392-2.096.392-3.329.392-3.206 0-3.945-1.044-3.945-5.479V1.74c0-.13-.124-.26-.247-.26h-4.808c-.124 0-.247.13-.247.26v11.609c0 7.304 2.343 10.043 8.26 10.043 3.329 0 7.151-.913 9.37-1.826.124 0 .124-.13.124-.26V1.739c.123-.26 0-.391-.124-.391Zm-101.835.13h-4.932c-.123 0-.246.13-.246.13-.74 3.131-2.343 8.48-4.439 14.088L63.37 1.478c0-.13-.124-.13-.247-.13h-4.931c-.124 0-.124.13-.247.13-.123.13-.123.13 0 .261L65.342 23c-.74 1.696-1.48 3-2.096 4.305-.493.913-.986 1.956-1.48 2.87-.122.13 0 .13 0 .26.124.13.124.13.247.13h5.302c.123 0 .123-.13.246-.13.863-1.826 2.096-4.435 3.083-7.043 3.082-7.696 5.67-15 7.52-21.653 0-.13 0-.13-.123-.26h-.123Zm17.506 16.305c0-.13-.123-.13-.123-.13h-.246c-1.11.39-3.33.912-4.932.912-3.329 0-4.931-.913-4.931-6.39 0-4.305.493-6.392 4.931-6.392 1.233 0 2.466.13 3.945.652.124 0 .247 0 .37-.13.617-1.174 1.233-2.479 1.973-4.174V1.87c0-.13-.247-.261-.247-.261C94.192.957 91.85.565 89.754.565c-7.028 0-10.11 3.392-10.11 11.348 0 7.957 3.082 11.479 10.11 11.479 1.725 0 5.177-.392 6.903-1.174.124-.13.124-.13.124-.392l-1.357-4.043Zm45.74-16.305h-4.931c-.123 0-.247.13-.247.13-.739 3.131-2.342 8.48-4.438 14.088l-4.932-14.218c0-.13-.123-.13-.246-.13h-4.932c-.123 0-.123.13-.246.13-.124.13-.124.13 0 .261L128.589 23c-.74 1.696-1.479 2.87-2.096 4.305-.493.913-.986 1.956-1.479 2.87-.124.13 0 .13 0 .26.123.13.123.13.246.13h5.302c.123 0 .123-.13.246-.13.863-1.826 2.096-4.435 3.082-7.043 3.083-7.696 5.672-15 7.398-21.653 0-.13 0-.13-.124-.26Zm18-.13h-14.178c-.123 0-.246.13-.246.26v20.74c0 .13.123.26.246.26h4.808c.124 0 .247-.13.247-.26V6.305h7.397c.124 0 .247-.13.247-.13.616-1.436 1.109-2.87 1.726-4.436v-.26c-.123 0-.247-.131-.247-.131Z" fill="#EE3F58"/><path d="M25.643 18.565c-3.205 0-4.191-.913-4.191-6.521 0-6 1.11-6.522 4.191-6.522 3.082 0 4.315.522 4.315 6.522-.123 5.739-1.11 6.521-4.315 6.521Zm0-17.87c-6.904 0-9.616 3.131-9.616 11.218 0 8.218 2.712 11.348 9.616 11.348s9.74-3.13 9.74-11.348c0-7.956-2.836-11.217-9.74-11.217Zm28.85 17.088c0-.13-.124-.13-.124-.13h-.246c-1.11.39-3.329.912-4.932.912-3.329 0-4.931-.913-4.931-6.391 0-4.304.493-6.391 4.931-6.391 1.233 0 2.466.13 3.945.652.124 0 .247 0 .37-.13.617-1.174 1.233-2.479 1.973-4.174V1.87c0-.13-.123-.13-.123-.13-1.85-.653-4.315-.914-6.288-.914-7.027 0-10.11 3.392-10.11 11.348 0 7.957 3.083 11.478 10.11 11.478 1.726 0 5.178-.391 6.904-1.174.123-.13.123-.13.123-.39l-1.602-4.305ZM14.424 1.348H.246c-.123 0-.246.13-.246.391v20.74c0 .13.123.26.246.26h4.808c.124 0 .247-.13.247-.26V6.304h7.397c.123 0 .123-.13.247-.13.616-1.436 1.233-3 1.726-4.436v-.26s-.124-.131-.247-.131Z" fill="#0065B1"/></g><defs><clipPath id="a"><path fill="#fff" transform="translate(0 .565)" d="M0 0h180v30H0z"/></clipPath></defs></svg>