<svg viewBox="0 0 185 37" fill="none" xmlns="http://www.w3.org/2000/svg" id="logo">
<path d="M39.0718 17.4732H40.5795L48.2419 31.244L55.8792 17.4732H57.3869L58.4499 34.2354H57.0657L56.1758 19.9002L48.2419 34.1786L40.3075 19.9002L39.393 34.2354H38.0088L39.0718 17.4732Z" fill="#1D1D1B"/>
<path d="M74.9778 17.4732L69.6884 27.5219L69.3155 28.2273C62.4663 24.3136 62.0367 18.1886 62.0101 17.4772H60.4561C60.4738 18.1556 60.8467 25.191 68.5999 29.5814L68.1561 30.421L66.1536 34.2354H67.6617L76.5102 17.4732H74.9778Z" fill="#1D1D1B"/>
<path d="M90.0415 27.1374C89.7246 27.8695 89.2895 28.5088 88.7372 29.0556C88.184 29.6025 87.5378 30.0369 86.7982 30.3586C86.0586 30.6806 85.2741 30.8412 84.4452 30.8412C83.4208 30.8412 82.47 30.608 81.5921 30.1413C80.7142 29.675 79.9906 29.0313 79.4218 28.2111V21.4307C79.9906 20.6103 80.7142 19.9673 81.5921 19.5005C82.47 19.034 83.4208 18.8006 84.4452 18.8006C85.2741 18.8006 86.0586 18.9574 86.7982 19.2712C87.5378 19.5848 88.184 20.0155 88.7372 20.562C89.2895 21.1092 89.7246 21.7486 90.0415 22.4804C90.3589 23.2125 90.5173 23.9885 90.5173 24.8089C90.5173 25.6293 90.3589 26.4056 90.0415 27.1374ZM91.2977 21.9496C90.9075 21.0568 90.3744 20.2768 89.7003 19.6091C89.0253 18.9418 88.2371 18.4146 87.335 18.0285C86.4327 17.6424 85.4692 17.4493 84.4452 17.4493C83.5183 17.4493 82.6197 17.6184 81.7505 17.9562C80.8804 18.294 80.1046 18.7766 79.4218 19.404V17.5459H78.0562V34.2354H79.4218V30.2378C80.1046 30.8493 80.8804 31.3277 81.7505 31.6734C82.6197 32.0192 83.5183 32.1923 84.4452 32.1923C85.4692 32.1923 86.4327 31.9992 87.335 31.6131C88.2371 31.227 89.0253 30.6964 89.7003 30.0208C90.3744 29.3451 90.9075 28.5609 91.2977 27.6681C91.6879 26.7753 91.883 25.8224 91.883 24.8089C91.883 23.7954 91.6879 22.8422 91.2977 21.9496Z" fill="#1D1D1B"/>
<path d="M108.759 28.4981C108.385 29.3326 107.88 30.0612 107.244 30.6839C106.609 31.3074 105.866 31.7978 105.015 32.1551C104.164 32.5124 103.262 32.6914 102.309 32.6914C101.355 32.6914 100.453 32.5124 99.6025 32.1551C98.7514 31.7978 98.0082 31.3074 97.3731 30.6839C96.7369 30.0612 96.237 29.3326 95.8726 28.4981C95.5081 27.6642 95.3259 26.7705 95.3259 25.8173C95.3259 24.8824 95.5081 23.9981 95.8726 23.1639C96.237 22.33 96.7369 21.6014 97.3731 20.9778C98.0082 20.3551 98.7514 19.8643 99.6025 19.5069C100.453 19.1493 101.355 18.9707 102.309 18.9707C103.262 18.9707 104.164 19.1493 105.015 19.5069C105.866 19.8643 106.609 20.3551 107.244 20.9778C107.88 21.6014 108.385 22.33 108.759 23.1639C109.133 23.9981 109.32 24.8824 109.32 25.8173C109.32 26.7705 109.133 27.6642 108.759 28.4981ZM109.32 17.4268V21.0251C109.032 20.6203 108.709 20.2423 108.352 19.8919C107.576 19.1315 106.669 18.5307 105.632 18.0907C104.594 17.6508 103.487 17.4308 102.309 17.4308C101.131 17.4308 100.023 17.6508 98.9852 18.0907C97.9477 18.5307 97.0407 19.1315 96.2649 19.8919C95.4892 20.6527 94.8772 21.5417 94.4284 22.559C93.9797 23.5763 93.7554 24.6624 93.7554 25.8173C93.7554 26.9722 93.9797 28.0582 94.4284 29.0754C94.8772 30.0929 95.4892 30.9865 96.2649 31.7564C97.0407 32.5264 97.9477 33.131 98.9852 33.571C100.023 34.011 101.131 34.231 102.309 34.231C103.487 34.231 104.594 34.011 105.632 33.571C106.669 33.131 107.576 32.5264 108.352 31.7564C108.709 31.4018 109.032 31.0207 109.32 30.6136V34.2084H110.933V17.4268H109.32Z" fill="#1D1D1B"/>
<path d="M126.951 17.4538H128.564V34.2354H126.951V17.4538ZM114.791 24.6297H128.218V26.2119H114.791V24.6297ZM114.387 17.4538H116.001V34.2354H114.387V17.4538Z" fill="#1D1D1B"/>
<path d="M138.947 18.9712C137.993 18.9712 137.091 19.1498 136.241 19.5074C135.39 19.8648 134.646 20.3556 134.011 20.9784C133.375 21.6019 132.875 22.3305 132.511 23.1644C132.146 23.9986 131.964 24.8829 131.964 25.8178C131.964 26.7711 132.146 27.6647 132.511 28.4986C132.875 29.3331 133.375 30.0617 134.011 30.6844C134.646 31.308 135.39 31.7983 136.241 32.1556C137.091 32.513 137.993 32.6919 138.947 32.6919C139.9 32.6919 140.802 32.513 141.653 32.1556C142.504 31.7983 143.247 31.308 143.883 30.6844C144.518 30.0617 145.023 29.3331 145.397 28.4986C145.771 27.6647 145.958 26.7711 145.958 25.8178C145.958 24.8829 145.771 23.9986 145.397 23.1644C145.023 22.3305 144.518 21.6019 143.883 20.9784C143.247 20.3556 142.504 19.8648 141.653 19.5074C140.802 19.1498 139.9 18.9712 138.947 18.9712ZM138.947 17.4313C140.125 17.4313 141.232 17.6513 142.27 18.0913C143.308 18.5312 144.214 19.132 144.99 19.8924C145.766 20.6533 146.379 21.5422 146.827 22.5595C147.276 23.5767 147.5 24.663 147.5 25.8178C147.5 26.9727 147.276 28.0587 146.827 29.0759C146.379 30.0934 145.766 30.987 144.99 31.757C144.214 32.5269 143.308 33.1316 142.27 33.5715C141.232 34.0115 140.125 34.2314 138.947 34.2314C137.769 34.2314 136.661 34.0115 135.623 33.5715C134.586 33.1316 133.679 32.5269 132.903 31.757C132.127 30.987 131.515 30.0934 131.067 29.0759C130.618 28.0587 130.394 26.9727 130.394 25.8178C130.394 24.663 130.618 23.5767 131.067 22.5595C131.515 21.5422 132.127 20.6533 132.903 19.8924C133.679 19.132 134.586 18.5312 135.623 18.0913C136.661 17.6513 137.769 17.4313 138.947 17.4313Z" fill="#1D1D1B"/>
<path d="M151.137 26.1355V32.5953H155.222C155.913 32.5953 156.507 32.5063 157.006 32.3275C157.504 32.1489 157.917 31.909 158.243 31.608C158.569 31.3074 158.809 30.9591 158.962 30.5644C159.116 30.1695 159.192 29.7462 159.192 29.2948C159.192 28.8813 159.068 28.4864 158.818 28.11C158.569 27.7341 158.224 27.4004 157.783 27.1087C157.341 26.8173 156.809 26.5824 156.186 26.4034C155.562 26.2248 154.877 26.1355 154.129 26.1355H151.137ZM151.137 18.8576V24.5558H154.1C155.442 24.5558 156.382 24.2737 156.92 23.7095C157.456 23.1453 157.725 22.4402 157.725 21.5938C157.725 21.2932 157.663 20.9828 157.538 20.6628C157.413 20.3433 157.207 20.052 156.92 19.7884C156.632 19.5254 156.258 19.3045 155.798 19.1254C155.337 18.9469 154.771 18.8576 154.1 18.8576H151.137ZM156.718 25.1764C158.023 25.3836 159.039 25.8535 159.768 26.5869C160.497 27.3201 160.861 28.2792 160.861 29.4641C160.861 30.5925 160.497 31.5564 159.768 32.3555C159.039 33.1552 158.08 33.7049 156.891 34.0058C156.545 34.1001 156.1 34.161 155.553 34.1891C155.006 34.2171 154.407 34.2314 153.755 34.2314H149.525V17.4752L152.661 17.4471C153.889 17.4471 154.843 17.4802 155.524 17.5459C156.205 17.6119 156.785 17.7763 157.265 18.0394C157.956 18.4158 158.477 18.9421 158.833 19.6191C159.188 20.2962 159.355 20.992 159.336 21.7067C159.317 22.553 159.106 23.3053 158.703 23.9632C158.301 24.6217 157.639 25.026 156.718 25.1764Z" fill="#1D1D1B"/>
<path d="M171.062 18.9792C170.109 18.9792 169.206 19.1579 168.356 19.5155C167.505 19.8728 166.762 20.3636 166.126 20.9864C165.49 21.6099 164.99 22.3385 164.626 23.1725C164.262 24.0067 164.079 24.891 164.079 25.8259C164.079 26.7791 164.262 27.6727 164.626 28.5067C164.99 29.3411 165.49 30.0697 166.126 30.6925C166.762 31.316 167.505 31.8063 168.356 32.1637C169.206 32.521 170.109 32.6999 171.062 32.6999C172.016 32.6999 172.917 32.521 173.768 32.1637C174.619 31.8063 175.362 31.316 175.998 30.6925C176.633 30.0697 177.138 29.3411 177.512 28.5067C177.886 27.6727 178.073 26.7791 178.073 25.8259C178.073 24.891 177.886 24.0067 177.512 23.1725C177.138 22.3385 176.633 21.6099 175.998 20.9864C175.362 20.3636 174.619 19.8728 173.768 19.5155C172.917 19.1579 172.016 18.9792 171.062 18.9792ZM171.062 17.4394C172.24 17.4394 173.348 17.6594 174.385 18.0993C175.423 18.5393 176.33 19.1401 177.105 19.9004C177.881 20.6613 178.494 21.5503 178.942 22.5676C179.391 23.5848 179.616 24.671 179.616 25.8259C179.616 26.9808 179.391 28.0667 178.942 29.084C178.494 30.1015 177.881 30.9951 177.105 31.765C176.33 32.5349 175.423 33.1396 174.385 33.5796C173.348 34.0195 172.24 34.2395 171.062 34.2395C169.884 34.2395 168.777 34.0195 167.739 33.5796C166.701 33.1396 165.794 32.5349 165.018 31.765C164.243 30.9951 163.631 30.1015 163.182 29.084C162.733 28.0667 162.509 26.9808 162.509 25.8259C162.509 24.671 162.733 23.5848 163.182 22.5676C163.631 21.5503 164.243 20.6613 165.018 19.9004C165.794 19.1401 166.701 18.5393 167.739 18.0993C168.777 17.6594 169.884 17.4394 171.062 17.4394Z" fill="#1D1D1B"/>
<path d="M40.9118 13.9968H41.5908L45.8236 6.14725H45.146L41.934 12.2179L38.7224 6.14725H38.0122L41.5628 12.788L40.9118 13.9968Z" fill="#1D1D1B"/>
<path d="M47.1028 12.8672C46.3363 12.1159 45.9531 11.1801 45.9531 10.0605C45.9531 8.94085 46.3363 8.00537 47.1028 7.25381C47.8691 6.50251 48.8235 6.12661 49.9654 6.12661C50.8089 6.12661 51.5573 6.33844 52.2108 6.76209C52.864 7.18574 53.345 7.75077 53.6536 8.45667L53.0672 8.65337C52.7895 8.05832 52.3779 7.58432 51.8327 7.23115C51.2873 6.87816 50.6649 6.70156 49.9654 6.70156C48.9983 6.70156 48.1907 7.02192 47.5426 7.66235C46.8945 8.30303 46.5704 9.10233 46.5704 10.0605C46.5704 11.0189 46.8945 11.8182 47.5426 12.4586C48.1907 13.0993 48.9983 13.4194 49.9654 13.4194C50.6649 13.4194 51.2873 13.2431 51.8327 12.8899C52.3779 12.5369 52.7895 12.0629 53.0672 11.4676L53.6536 11.6643C53.345 12.3705 52.864 12.9352 52.2108 13.3589C51.5573 13.7826 50.8089 13.9944 49.9654 13.9944C48.8235 13.9944 47.8691 13.6187 47.1028 12.8672Z" fill="#1D1D1B"/>
<path d="M57.4463 13.4218C58.3863 13.4218 59.1592 13.1206 59.7637 12.5177C60.3686 11.9153 60.6708 11.2022 60.6708 10.3784V9.77593C60.4743 9.98703 60.0504 10.1325 59.3996 10.2128L57.5236 10.4239C56.9447 10.494 56.4773 10.6571 56.1208 10.9132C55.7642 11.1694 55.5857 11.5288 55.5857 11.9907C55.5857 12.4325 55.7588 12.7813 56.1049 13.0374C56.4514 13.2936 56.8983 13.4218 57.4463 13.4218ZM58.5005 6.16037C59.3164 6.16037 59.986 6.37102 60.5077 6.79314C61.0298 7.21489 61.2907 7.79234 61.2907 8.52555V13.8436H60.6708V12.2317C59.9267 13.4067 58.8412 13.9944 57.4149 13.9944C56.6709 13.9944 56.0765 13.8132 55.6321 13.4518C55.1878 13.0903 54.9658 12.6034 54.9658 11.9907C54.9658 11.3678 55.1953 10.8784 55.6555 10.5218C56.1153 10.1653 56.7382 9.94151 57.5236 9.85136L59.5542 9.62511C59.9267 9.58538 60.2055 9.48497 60.3915 9.3239C60.5775 9.16366 60.6708 8.91734 60.6708 8.58578C60.6708 8.00339 60.4714 7.54891 60.0739 7.22225C59.6759 6.89603 59.1409 6.73291 58.4691 6.73291C57.8283 6.73291 57.2653 6.88618 56.7796 7.19233C56.2934 7.49889 55.9627 7.98823 55.7872 8.66117L55.1982 8.45012C55.4152 7.67677 55.8236 7.10175 56.423 6.72511C57.022 6.34847 57.7146 6.16037 58.5005 6.16037Z" fill="#1D1D1B"/>
<path d="M64.9312 11.69C65.0495 11.0351 65.1087 10.1308 65.1087 8.97757V6.74468H69.7408V13.4117H64.2371C64.5813 12.9193 64.8128 12.3453 64.9312 11.69ZM71.5163 13.9983V13.4117H70.3865V6.14714H64.4634V8.97757C64.4634 10.1308 64.3959 11.0351 64.2615 11.69C64.127 12.3453 63.8607 12.9193 63.4625 13.4117H62.5747V13.9983H71.5163Z" fill="#1D1D1B"/>
<path d="M73.7909 9.76363V13.4115H76.4851C77.073 13.4115 77.5516 13.2385 77.9205 12.8926C78.2893 12.5467 78.4738 12.1119 78.4738 11.5876C78.4738 11.0635 78.2893 10.6284 77.9205 10.2825C77.5516 9.93661 77.073 9.76363 76.4851 9.76363H73.7909ZM76.4851 14.009H73.1494V6.14719H73.7909V9.16612H76.4851C77.255 9.16612 77.8857 9.39951 78.3776 9.86583C78.8692 10.3324 79.1152 10.9063 79.1152 11.5876C79.1152 12.2691 78.8692 12.843 78.3776 13.3093C77.8857 13.7759 77.255 14.009 76.4851 14.009Z" fill="#1D1D1B"/>
<path d="M81.6019 12.5399C82.2034 13.1347 82.9552 13.4319 83.8575 13.4319C84.7597 13.4319 85.5116 13.1347 86.1131 12.5399C86.7146 11.9454 87.0154 11.2008 87.0154 10.3063C87.0154 9.412 86.7146 8.66747 86.1131 8.07264C85.5116 7.47809 84.7597 7.18065 83.8575 7.18065C82.9552 7.18065 82.2034 7.47809 81.6019 8.07264C81.0004 8.66747 80.6996 9.412 80.6996 10.3063C80.6996 11.2008 81.0004 11.9454 81.6019 12.5399ZM83.8575 6.62042C84.92 6.62042 85.8123 6.97425 86.5341 7.68194C87.2559 8.38963 87.6168 9.26458 87.6168 10.3063C87.6168 11.3482 87.2559 12.2229 86.5341 12.9306C85.8123 13.6383 84.92 13.9922 83.8575 13.9922C82.7947 13.9922 81.9026 13.6383 81.1808 12.9306C80.459 12.2229 80.0981 11.3482 80.0981 10.3063C80.0981 8.35048 80.2659 6.90563 80.6019 5.97172C80.9376 5.03803 81.5417 4.35982 82.4139 3.93708C82.9451 3.68161 83.7496 3.46531 84.8274 3.28838C85.9049 3.11145 86.7146 2.94444 87.2559 2.7871V3.37685C86.915 3.48512 86.1681 3.63485 85.0154 3.82654C83.8624 4.01819 83.0755 4.21723 82.6545 4.42364C81.5215 4.97421 80.8801 6.26172 80.7297 8.28644C81.0504 7.76557 81.4839 7.35759 82.0305 7.06271C82.5767 6.76784 83.1857 6.62042 83.8575 6.62042Z" fill="#1D1D1B"/>
<path d="M91.3286 13.4218C92.2687 13.4218 93.0416 13.1206 93.646 12.5177C94.2509 11.9153 94.5531 11.2022 94.5531 10.3784V9.77593C94.3566 9.98703 93.9328 10.1325 93.2819 10.2128L91.4059 10.4239C90.827 10.494 90.3596 10.6571 90.0031 10.9132C89.6465 11.1694 89.4681 11.5288 89.4681 11.9907C89.4681 12.4325 89.6411 12.7813 89.9872 13.0374C90.3338 13.2936 90.7806 13.4218 91.3286 13.4218ZM92.3828 6.16037C93.1988 6.16037 93.8684 6.37102 94.3901 6.79314C94.9121 7.21489 95.173 7.79234 95.173 8.52555V13.8436H94.5531V12.2317C93.809 13.4067 92.7235 13.9944 91.2973 13.9944C90.5532 13.9944 89.9588 13.8132 89.5144 13.4518C89.0701 13.0903 88.8481 12.6034 88.8481 11.9907C88.8481 11.3678 89.0776 10.8784 89.5379 10.5218C89.9977 10.1653 90.6205 9.94151 91.4059 9.85136L93.4366 9.62511C93.809 9.58538 94.0879 9.48497 94.2738 9.3239C94.4599 9.16366 94.5531 8.91734 94.5531 8.58578C94.5531 8.00339 94.3537 7.54891 93.9562 7.22225C93.5582 6.89603 93.0232 6.73291 92.3514 6.73291C91.7106 6.73291 91.1476 6.88618 90.6619 7.19233C90.1757 7.49889 89.8451 7.98823 89.6695 8.66117L89.0806 8.45012C89.2975 7.67677 89.7059 7.10175 90.3053 6.72511C90.9043 6.34847 91.597 6.16037 92.3828 6.16037Z" fill="#1D1D1B"/>
<path d="M5.37695 22.3331L5.97065 23.314L13.7433 18.7923V14.6925L14.8044 14.015L15.8894 14.7162V17.8957H17.0528V15.468L18.4738 16.3862L19.1139 15.434L14.8083 12.6513L10.4528 15.4322L11.0877 16.388L12.5799 15.4352V18.1427L5.37695 22.3331Z" fill="#C25B3C"/>
<path d="M13.0346 27.1476L14.8452 25.9916L16.6209 27.1392V32.9563L13.0346 32.9563V27.1476ZM26.2637 2.78019L20.4351 8.40897V11.5278L14.8291 7.96324L5.37744 13.6093L6.06917 14.7226L14.8071 9.503L20.4323 13.0797L20.4394 17.8966L21.769 17.8947L21.7632 13.9258L21.7646 13.9268V8.95478L26.2549 4.61849L30.6992 8.99187V32.9564L17.9505 32.9563V27.9985L18.9722 28.6588L19.7039 27.5703L14.8497 24.4331L9.93913 27.5684L10.6646 28.6607L11.705 27.9965V32.9563L5.37763 32.9562V34.2599L32.0288 34.26V8.45335L26.2637 2.78019Z" fill="#C25B3C"/>
</svg>
