<svg viewBox="0 0 22 17" xmlns="http://www.w3.org/2000/svg" id="eye">
<path d="M11.001 11.5322C12.6578 11.5322 14.001 10.1891 14.001 8.53223C14.001 6.87537 12.6578 5.53223 11.001 5.53223C9.34412 5.53223 8.00098 6.87537 8.00098 8.53223C8.00098 10.1891 9.34412 11.5322 11.001 11.5322Z" />
<path fill-rule="evenodd" clip-rule="evenodd" d="M0.324388 7.97892C1.81164 3.50794 6.02889 0.282227 11.0015 0.282227C15.9718 0.282227 20.1874 3.50494 21.6765 7.97268C21.7969 8.33374 21.797 8.7244 21.6769 9.08553C20.1896 13.5565 15.9723 16.7822 10.9997 16.7822C6.02945 16.7822 1.81381 13.5595 0.324715 9.09178C0.204374 8.73072 0.204259 8.34005 0.324388 7.97892ZM16.251 8.53223C16.251 11.4317 13.9005 13.7822 11.001 13.7822C8.10148 13.7822 5.75098 11.4317 5.75098 8.53223C5.75098 5.63273 8.10148 3.28223 11.001 3.28223C13.9005 3.28223 16.251 5.63273 16.251 8.53223Z" />
</svg>
