<svg width="17" height="16" viewBox="0 0 17 16" fill="none" xmlns="http://www.w3.org/2000/svg">
<path d="M1.27483 13.9941C0.884303 14.3846 0.884303 15.0178 1.27483 15.4083C1.66535 15.7988 2.29852 15.7988 2.68904 15.4083L1.27483 13.9941ZM16.417 1.26614C16.417 0.713859 15.9692 0.266144 15.417 0.266144L6.41696 0.266145C5.86468 0.266144 5.41696 0.71386 5.41696 1.26614C5.41696 1.81843 5.86468 2.26614 6.41696 2.26614L14.417 2.26614L14.417 10.2661C14.417 10.8184 14.8647 11.2661 15.417 11.2661C15.9692 11.2661 16.417 10.8184 16.417 10.2661L16.417 1.26614ZM2.68904 15.4083L16.1241 1.97325L14.7099 0.559038L1.27483 13.9941L2.68904 15.4083Z" fill="#818B94"/>
</svg>
