<svg width="16" height="16" viewBox="0 0 16 16" fill="none" xmlns="http://www.w3.org/2000/svg">
<path d="M15.2114 14.4016C15.2804 14.4707 15.3351 14.5526 15.3725 14.6428C15.4098 14.733 15.4291 14.8296 15.4291 14.9272C15.4291 15.0248 15.4098 15.1215 15.3725 15.2117C15.3351 15.3019 15.2804 15.3838 15.2114 15.4528C15.1423 15.5218 15.0604 15.5766 14.9702 15.6139C14.88 15.6513 14.7834 15.6705 14.6858 15.6705C14.5882 15.6705 14.4915 15.6513 14.4013 15.6139C14.3112 15.5766 14.2292 15.5218 14.1602 15.4528L7.99993 9.29162L1.83967 15.4528C1.70027 15.5922 1.51122 15.6705 1.31409 15.6705C1.11695 15.6705 0.927897 15.5922 0.788504 15.4528C0.649111 15.3134 0.570801 15.1244 0.570801 14.9272C0.570801 14.7301 0.649111 14.541 0.788504 14.4016L6.9497 8.24139L0.788504 2.08112C0.649111 1.94173 0.570801 1.75267 0.570801 1.55554C0.570801 1.35841 0.649111 1.16935 0.788504 1.02996C0.927897 0.890566 1.11695 0.812256 1.31409 0.812256C1.51122 0.812256 1.70027 0.890566 1.83967 1.02996L7.99993 7.19115L14.1602 1.02996C14.2996 0.890566 14.4886 0.812256 14.6858 0.812256C14.8829 0.812256 15.072 0.890566 15.2114 1.02996C15.3508 1.16935 15.4291 1.35841 15.4291 1.55554C15.4291 1.75267 15.3508 1.94173 15.2114 2.08112L9.05017 8.24139L15.2114 14.4016Z" fill="#FBFBFB"/>
</svg>
