<svg viewBox="0 0 19 19" xmlns="http://www.w3.org/2000/svg" id="search">
<path d="M2.59615 7.93607C2.59615 4.72857 5.19635 2.12838 8.40385 2.12838C11.6113 2.12838 14.2115 4.72857 14.2115 7.93607C14.2115 9.5401 13.5625 10.9907 12.5105 12.0427C11.4585 13.0947 10.0079 13.7438 8.40385 13.7438C5.19635 13.7438 2.59615 11.1436 2.59615 7.93607ZM8.40385 0.282227C4.17674 0.282227 0.75 3.70897 0.75 7.93607C0.75 12.1632 4.17674 15.5899 8.40385 15.5899C10.1842 15.5899 11.8239 14.9811 13.1239 13.9616L17.1742 18.0119C17.5347 18.3723 18.1192 18.3723 18.4796 18.0119C18.8401 17.6514 18.8401 17.0669 18.4796 16.7064L14.4293 12.6561C15.4489 11.3561 16.0577 9.71646 16.0577 7.93607C16.0577 3.70897 12.6309 0.282227 8.40385 0.282227Z"  stroke-width="1" stroke-linecap="round" stroke-linejoin="round"/>
</svg>
