<?xml version="1.0" encoding="utf-8"?><svg viewBox="0 0 51 51" xmlns="http://www.w3.org/2000/svg" xmlns:xlink="http://www.w3.org/1999/xlink"><style>:root>svg{display:none}:root>svg:target{display:block}</style><svg fill="none" viewBox="0 0 51 51" id="object-1" xmlns="http://www.w3.org/2000/svg"><circle cx="25.885" cy="25.785" r="23.5" fill="#FBFBFB" stroke="#E6886B" stroke-width="3"/><path d="M29.268 13.373v24.624c0 .144-.108.288-.324.288h-4.14c-.216 0-.324-.144-.324-.288V18.485c-1.116.36-2.16.792-3.204 1.188-.18.036-.36-.036-.432-.18l-1.368-2.952c-.072-.144-.036-.288.144-.36l5.724-3.096h3.6c.216 0 .324.144.324.288Z" fill="#E6886B"/></svg><svg fill="none" viewBox="0 0 51 51" id="object-10" xmlns="http://www.w3.org/2000/svg"><circle cx="25.919" cy="25.785" r="23.5" fill="#FBFBFB" stroke="#E6886B" stroke-width="3"/><path d="M19.624 13.373v24.624c0 .144-.108.288-.324.288h-4.14c-.216 0-.324-.144-.324-.288V18.485c-1.116.36-2.16.792-3.204 1.188-.18.036-.36-.036-.432-.18l-1.368-2.952c-.072-.144-.036-.288.144-.36l5.724-3.096h3.6c.216 0 .324.144.324.288Zm20.162 18c0 4.824-3.78 7.272-7.525 7.272-3.78 0-7.524-2.448-7.524-7.272V19.997c0-4.788 3.745-7.272 7.524-7.272 3.744 0 7.524 2.484 7.524 7.272v11.376ZM34.96 19.71c0-1.836-1.367-2.736-2.7-2.736-1.368 0-2.7.9-2.7 2.736v11.844c0 1.836 1.369 2.772 2.7 2.772 1.368 0 2.7-.936 2.7-2.772V19.71Z" fill="#E6886B"/></svg><svg fill="none" viewBox="0 0 51 51" id="object-11" xmlns="http://www.w3.org/2000/svg"><circle cx="25.034" cy="25.785" r="23.5" fill="#FBFBFB" stroke="#E6886B" stroke-width="3"/><path d="M22.44 13.373v24.624c0 .144-.107.288-.323.288h-4.14c-.216 0-.324-.144-.324-.288V18.485c-1.116.36-2.16.792-3.204 1.188-.18.036-.36-.036-.432-.18l-1.368-2.952c-.072-.144-.036-.288.144-.36l5.724-3.096h3.6c.216 0 .324.144.324.288Zm11.954 0v24.624c0 .144-.108.288-.324.288h-4.14c-.216 0-.324-.144-.324-.288V18.485c-1.116.36-2.16.792-3.204 1.188-.18.036-.36-.036-.432-.18l-1.368-2.952c-.072-.144-.036-.288.144-.36l5.724-3.096h3.6c.216 0 .324.144.324.288Z" fill="#E6886B"/></svg><svg fill="none" viewBox="0 0 51 51" id="object-12" xmlns="http://www.w3.org/2000/svg"><circle cx="25.149" cy="25.785" r="23.5" fill="#FBFBFB" stroke="#E6886B" stroke-width="3"/><path d="M19.708 13.373v24.624c0 .144-.108.288-.324.288h-4.14c-.216 0-.324-.144-.324-.288V18.485c-1.116.36-2.16.792-3.204 1.188-.18.036-.36-.036-.432-.18l-1.368-2.952c-.072-.144-.036-.288.144-.36l5.724-3.096h3.6c.216 0 .324.144.324.288Zm18.685 20.52v4.104c0 .144-.144.288-.36.288H23.669c-.216 0-.36-.144-.36-.288v-3.78l8.892-12.276c.612-.828.864-1.584.864-2.268 0-1.296-.972-2.232-2.232-2.232-1.296 0-2.7.792-2.7 2.7 0 .108-.144.252-.36.252h-3.852c-.216 0-.36-.144-.36-.252 0-4.104 2.268-7.38 7.272-7.38 3.744 0 7.236 2.772 7.236 6.66 0 1.512-.576 3.204-1.8 4.896l-7.02 9.288h8.784c.216 0 .36.144.36.288Z" fill="#E6886B"/></svg><svg fill="none" viewBox="0 0 51 51" id="object-13" xmlns="http://www.w3.org/2000/svg"><circle cx="25.264" cy="25.785" r="23.5" fill="#FBFBFB" stroke="#E6886B" stroke-width="3"/><path d="M19.77 13.373v24.624c0 .144-.108.288-.324.288h-4.14c-.216 0-.324-.144-.324-.288V18.485c-1.116.36-2.16.792-3.204 1.188-.18.036-.36-.036-.432-.18l-1.368-2.952c-.072-.144-.036-.288.144-.36l5.724-3.096h3.6c.216 0 .324.144.324.288Zm7.273 12.78 5.004-8.532h-7.74c-.216 0-.36-.144-.36-.288v-3.96c0-.144.144-.288.36-.288H38.78c.288 0 .468.216.324.432l-5.328 9.36c3.348.972 5.22 3.888 5.22 7.92 0 5.544-3.996 7.848-8.136 7.848-4.14 0-7.74-2.88-7.74-7.452 0-.144.144-.288.36-.288h4.068c.18 0 .324.144.324.288 0 1.728 1.476 2.808 2.988 2.808 2.16 0 3.276-1.764 3.276-3.492 0-2.196-1.332-3.744-3.384-3.924h-3.384c-.288 0-.468-.216-.324-.432Z" fill="#E6886B"/></svg><svg fill="none" viewBox="0 0 51 51" id="object-14" xmlns="http://www.w3.org/2000/svg"><circle cx="25.379" cy="25.785" r="23.5" fill="#FBFBFB" stroke="#E6886B" stroke-width="3"/><path d="M19.998 13.373v24.624c0 .144-.108.288-.324.288h-4.14c-.216 0-.324-.144-.324-.288V18.485c-1.116.36-2.16.792-3.204 1.188-.18.036-.36-.036-.432-.18l-1.368-2.952c-.072-.144-.036-.288.144-.36l5.724-3.096h3.6c.216 0 .324.144.324.288Zm18.434 0v24.624c0 .144-.144.288-.36.288h-4.104c-.18 0-.324-.144-.324-.288v-7.164h-9.828c-.216 0-.36-.144-.36-.288v-3.96l10.26-13.392a.538.538 0 0 1 .252-.108h4.104c.216 0 .36.144.36.288Zm-4.752 6.444-5.436 6.84h5.436v-6.84Z" fill="#E6886B"/></svg><svg fill="none" viewBox="0 0 51 51" id="object-15" xmlns="http://www.w3.org/2000/svg"><circle cx="25.494" cy="25.785" r="23.5" fill="#FBFBFB" stroke="#E6886B" stroke-width="3"/><path d="M19.86 13.373v24.624c0 .144-.108.288-.325.288h-4.14c-.215 0-.323-.144-.323-.288V18.485c-1.116.36-2.16.792-3.204 1.188-.18.036-.36-.036-.433-.18l-1.367-2.952c-.072-.144-.037-.288.143-.36l5.724-3.096h3.6c.216 0 .325.144.325.288Zm11.377 25.164c-4.176 0-7.524-2.592-7.524-7.452 0-.144.144-.288.36-.288h4.068c.216 0 .36.144.36.288 0 1.908 1.224 2.808 2.736 2.808 2.016 0 3.096-1.656 3.096-3.384 0-2.16-.972-3.816-3.096-3.96h-6.984c-.216 0-.36-.144-.36-.288V13.373c0-.144.144-.288.36-.288h13.212c.216 0 .36.144.36.288v3.816c0 .144-.144.288-.36.288h-8.748v4.86h2.52c5.472 0 7.884 3.348 7.884 8.424 0 4.896-3.744 7.776-7.884 7.776Z" fill="#E6886B"/></svg><svg fill="none" viewBox="0 0 51 51" id="object-16" xmlns="http://www.w3.org/2000/svg"><circle cx="25.885" cy="25.785" r="23.5" fill="#FBFBFB" stroke="#818B94" stroke-width="3"/><path d="M29.268 13.373v24.624c0 .144-.108.288-.324.288h-4.14c-.216 0-.324-.144-.324-.288V18.485c-1.116.36-2.16.792-3.204 1.188-.18.036-.36-.036-.432-.18l-1.368-2.952c-.072-.144-.036-.288.144-.36l5.724-3.096h3.6c.216 0 .324.144.324.288Z" fill="#818B94"/></svg><svg fill="none" viewBox="0 0 50 51" id="object-17" xmlns="http://www.w3.org/2000/svg"><circle cx="25" cy="25.785" r="23.5" fill="#FBFBFB" stroke="#818B94" stroke-width="3"/><path d="M32.267 33.893v4.104c0 .144-.144.288-.36.288H17.543c-.216 0-.36-.144-.36-.288v-3.78l8.892-12.276c.612-.828.864-1.584.864-2.268 0-1.296-.972-2.232-2.232-2.232-1.296 0-2.7.792-2.7 2.7 0 .108-.144.252-.36.252h-3.852c-.216 0-.36-.144-.36-.252 0-4.104 2.268-7.38 7.272-7.38 3.744 0 7.236 2.772 7.236 6.66 0 1.512-.576 3.204-1.8 4.896l-7.02 9.288h8.784c.216 0 .36.144.36.288Z" fill="#818B94"/></svg><svg fill="none" viewBox="0 0 51 51" id="object-18" xmlns="http://www.w3.org/2000/svg"><circle cx="25.114" cy="25.785" r="23.5" fill="#FBFBFB" stroke="#818B94" stroke-width="3"/><path d="m20.917 26.153 5.004-8.532h-7.74c-.216 0-.36-.144-.36-.288v-3.96c0-.144.144-.288.36-.288h14.472c.288 0 .468.216.324.432l-5.328 9.36c3.348.972 5.22 3.888 5.22 7.92 0 5.544-3.996 7.848-8.136 7.848-4.14 0-7.74-2.88-7.74-7.452 0-.144.144-.288.36-.288h4.068c.18 0 .324.144.324.288 0 1.728 1.476 2.808 2.988 2.808 2.16 0 3.276-1.764 3.276-3.492 0-2.196-1.332-3.744-3.384-3.924h-3.384c-.288 0-.468-.216-.324-.432Z" fill="#818B94"/></svg><svg fill="none" viewBox="0 0 51 51" id="object-19" xmlns="http://www.w3.org/2000/svg"><circle cx="25.229" cy="25.785" r="23.5" fill="#FBFBFB" stroke="#818B94" stroke-width="3"/><path d="M32.305 13.373v24.624c0 .144-.144.288-.36.288h-4.104c-.18 0-.324-.144-.324-.288v-7.164H17.69c-.216 0-.36-.144-.36-.288v-3.96l10.26-13.392a.538.538 0 0 1 .252-.108h4.104c.216 0 .36.144.36.288Zm-4.752 6.444-5.436 6.84h5.436v-6.84Z" fill="#818B94"/></svg><svg fill="none" viewBox="0 0 50 51" id="object-2" xmlns="http://www.w3.org/2000/svg"><circle cx="25" cy="25.785" r="23.5" fill="#FBFBFB" stroke="#E6886B" stroke-width="3"/><path d="M32.267 33.893v4.104c0 .144-.144.288-.36.288H17.543c-.216 0-.36-.144-.36-.288v-3.78l8.892-12.276c.612-.828.864-1.584.864-2.268 0-1.296-.972-2.232-2.232-2.232-1.296 0-2.7.792-2.7 2.7 0 .108-.144.252-.36.252h-3.852c-.216 0-.36-.144-.36-.252 0-4.104 2.268-7.38 7.272-7.38 3.744 0 7.236 2.772 7.236 6.66 0 1.512-.576 3.204-1.8 4.896l-7.02 9.288h8.784c.216 0 .36.144.36.288Z" fill="#E6886B"/></svg><svg fill="none" viewBox="0 0 51 51" id="object-20" xmlns="http://www.w3.org/2000/svg"><circle cx="25.344" cy="25.785" r="23.5" fill="#FBFBFB" stroke="#818B94" stroke-width="3"/><path d="M25.61 38.537c-4.176 0-7.524-2.592-7.524-7.452 0-.144.144-.288.36-.288h4.068c.216 0 .36.144.36.288 0 1.908 1.224 2.808 2.736 2.808 2.016 0 3.096-1.656 3.096-3.384 0-2.16-.972-3.816-3.096-3.96h-6.984c-.216 0-.36-.144-.36-.288V13.373c0-.144.144-.288.36-.288h13.212c.216 0 .36.144.36.288v3.816c0 .144-.144.288-.36.288H23.09v4.86h2.52c5.472 0 7.884 3.348 7.884 8.424 0 4.896-3.744 7.776-7.884 7.776Z" fill="#818B94"/></svg><svg fill="none" viewBox="0 0 51 51" id="object-3" xmlns="http://www.w3.org/2000/svg"><circle cx="25.114" cy="25.785" r="23.5" fill="#FBFBFB" stroke="#E6886B" stroke-width="3"/><path d="m20.917 26.153 5.004-8.532h-7.74c-.216 0-.36-.144-.36-.288v-3.96c0-.144.144-.288.36-.288h14.472c.288 0 .468.216.324.432l-5.328 9.36c3.348.972 5.22 3.888 5.22 7.92 0 5.544-3.996 7.848-8.136 7.848-4.14 0-7.74-2.88-7.74-7.452 0-.144.144-.288.36-.288h4.068c.18 0 .324.144.324.288 0 1.728 1.476 2.808 2.988 2.808 2.16 0 3.276-1.764 3.276-3.492 0-2.196-1.332-3.744-3.384-3.924h-3.384c-.288 0-.468-.216-.324-.432Z" fill="#E6886B"/></svg><svg fill="none" viewBox="0 0 51 51" id="object-4" xmlns="http://www.w3.org/2000/svg"><circle cx="25.229" cy="25.785" r="23.5" fill="#FBFBFB" stroke="#E6886B" stroke-width="3"/><path d="M32.305 13.373v24.624c0 .144-.144.288-.36.288h-4.104c-.18 0-.324-.144-.324-.288v-7.164H17.69c-.216 0-.36-.144-.36-.288v-3.96l10.26-13.392a.538.538 0 0 1 .252-.108h4.104c.216 0 .36.144.36.288Zm-4.752 6.444-5.436 6.84h5.436v-6.84Z" fill="#E6886B"/></svg><svg fill="none" viewBox="0 0 51 51" id="object-5" xmlns="http://www.w3.org/2000/svg"><circle cx="25.344" cy="25.785" r="23.5" fill="#FBFBFB" stroke="#E6886B" stroke-width="3"/><path d="M25.61 38.537c-4.176 0-7.524-2.592-7.524-7.452 0-.144.144-.288.36-.288h4.068c.216 0 .36.144.36.288 0 1.908 1.224 2.808 2.736 2.808 2.016 0 3.096-1.656 3.096-3.384 0-2.16-.972-3.816-3.096-3.96h-6.984c-.216 0-.36-.144-.36-.288V13.373c0-.144.144-.288.36-.288h13.212c.216 0 .36.144.36.288v3.816c0 .144-.144.288-.36.288H23.09v4.86h2.52c5.472 0 7.884 3.348 7.884 8.424 0 4.896-3.744 7.776-7.884 7.776Z" fill="#E6886B"/></svg><svg fill="none" viewBox="0 0 51 51" id="object-6" xmlns="http://www.w3.org/2000/svg"><circle cx="25.459" cy="25.785" r="23.5" fill="#FBFBFB" stroke="#E6886B" stroke-width="3"/><path d="M25.677 38.573c-4.465 0-7.38-3.456-7.38-7.56 0-.864.107-1.692.36-2.556l5.328-15.192c.035-.108.143-.18.288-.18h4.392c.216 0 .36.18.288.396l-3.636 10.332c.323-.108.72-.108 1.296-.108 4.104 0 6.623 3.636 6.623 7.416 0 4.104-3.42 7.452-7.56 7.452Zm.035-10.512c-1.584 0-2.951 1.404-2.951 3.096 0 1.692 1.332 3.06 2.951 3.06 1.657 0 3.024-1.368 3.024-3.06s-1.367-3.096-3.024-3.096Z" fill="#E6886B"/></svg><svg fill="none" viewBox="0 0 51 51" id="object-7" xmlns="http://www.w3.org/2000/svg"><circle cx="25.574" cy="25.785" r="23.5" fill="#FBFBFB" stroke="#E6886B" stroke-width="3"/><path d="m19.246 37.89 7.632-20.269h-8.424c-.216 0-.36-.144-.36-.288v-3.96c0-.144.144-.288.36-.288h14.724c.252 0 .432.18.324.396l-9.288 24.624c-.036.108-.144.18-.288.18h-4.392c-.216 0-.396-.18-.288-.396Z" fill="#E6886B"/></svg><svg fill="none" viewBox="0 0 51 51" id="object-8" xmlns="http://www.w3.org/2000/svg"><circle cx="25.689" cy="25.785" r="23.5" fill="#FBFBFB" stroke="#E6886B" stroke-width="3"/><path d="M33.081 20.393c0 1.98-1.008 4.104-2.628 5.292 1.62 1.332 2.628 3.348 2.628 5.292 0 5.112-3.816 7.668-7.596 7.668-3.744 0-7.524-2.556-7.524-7.668 0-1.944 1.08-4.104 2.484-5.328-1.44-1.26-2.484-3.312-2.484-5.256 0-5.04 3.78-7.632 7.524-7.632 3.78 0 7.596 2.592 7.596 7.632Zm-10.512 0c0 1.692 1.296 3.024 2.916 3.024 1.62 0 2.952-1.332 2.952-3.024 0-2.124-1.476-3.204-2.952-3.204s-2.916 1.08-2.916 3.204Zm.108 10.584c0 2.088 1.404 3.132 2.808 3.132s2.844-1.044 2.844-3.132c0-1.62-1.26-3.06-2.844-3.06-1.548 0-2.808 1.44-2.808 3.06Z" fill="#E6886B"/></svg><svg fill="none" viewBox="0 0 51 51" id="object-9" xmlns="http://www.w3.org/2000/svg"><circle cx="25.804" cy="25.785" r="23.5" fill="#FBFBFB" stroke="#E6886B" stroke-width="3"/><path d="M25.438 12.797c4.5 0 7.416 3.456 7.416 7.56 0 .792-.108 1.62-.396 2.592l-5.292 15.156c-.036.108-.18.18-.324.18h-4.356c-.252 0-.396-.18-.324-.396l3.672-10.332c-.36.108-.72.108-1.296.108-4.104 0-6.624-3.636-6.624-7.416 0-4.104 3.42-7.452 7.524-7.452Zm-.036 10.44c1.548 0 2.916-1.332 2.916-3.024 0-1.656-1.332-2.988-2.916-2.988-1.62 0-2.916 1.332-2.916 2.988s1.296 3.024 2.916 3.024Z" fill="#E6886B"/></svg><svg fill="none" viewBox="0 0 51 51" id="object-register" xmlns="http://www.w3.org/2000/svg"><circle cx="25.885" cy="25.785" r="23.5" fill="#FBFBFB" stroke="#5656CC" stroke-width="3"/><g clip-path="url(#ua)"><path d="M35.643 16.687a1 1 0 0 0 .366-1.366l-2-3.464a2 2 0 0 0-2.732-.732l-20.785 12a2 2 0 0 0-.732 2.732l2 3.464a1 1 0 0 0 1.366.366 3 3 0 1 1 3 5.196 1 1 0 0 0-.366 1.366l2 3.464a2 2 0 0 0 2.732.732l20.785-12a2 2 0 0 0 .732-2.732l-2-3.464a1 1 0 0 0-1.366-.366 3 3 0 0 1-3-5.196Zm-17.7 19.342a5 5 0 0 0-4.9-8.487l-1.55-2.685 6.062-3.5 8 13.856-6.063 3.5-1.55-2.684Zm20.784-12 1.55 2.684-12.99 7.5-8-13.856 12.99-7.5 1.55 2.685a5 5 0 0 0 4.9 8.487Z" fill="#5656CC"/></g><defs><clipPath id="ua"><path fill="#fff" transform="rotate(-30 39.202 2.447)" d="M0 0h32v32H0z"/></clipPath></defs></svg><svg fill="none" viewBox="0 0 51 51" id="object-wc" xmlns="http://www.w3.org/2000/svg"><circle cx="25.885" cy="25.785" r="23.5" fill="#FBFBFB" stroke="#5656CC" stroke-width="3"/><path d="m28.885 19.005-5.48 14.22c-.06.14-.28.14-.34 0l-4.12-10.78-4.1 10.78c-.06.14-.3.14-.34 0l-5.46-14.22c-.06-.12.04-.22.18-.22h2.46c.08 0 .16.04.18.1l2.8 7.58 2.88-7.58c.02-.06.1-.1.18-.1h2.46c.08 0 .16.04.18.1l2.88 7.58 2.82-7.58c.02-.06.1-.1.18-.1h2.46c.16 0 .24.1.18.22Zm8.213 11.38c1.2 0 2.28-.5 3.08-1.3.08-.06.2-.06.28 0l1.6 1.62c.08.06.08.18 0 .24-1.24 1.26-3 2.04-4.96 2.04-3.88 0-7.06-2.8-7.06-7.2 0-4.22 2.94-7.2 7.06-7.2 1.96 0 3.72.78 4.96 2.06.08.06.08.18 0 .24l-1.6 1.6a.24.24 0 0 1-.28 0c-.8-.8-1.88-1.3-3.08-1.3-2.7 0-4.34 1.94-4.34 4.6 0 2.84 1.94 4.6 4.34 4.6Z" fill="#5656CC"/></svg></svg>