<svg xmlns="http://www.w3.org/2000/svg" width="34" height="44" fill="none"><circle cx="17" cy="40.8" r="3.2" fill="#C25B3C"/><path fill="#C25B3C" d="M34 16.744c0 8.683-6.71 15.822-15.3 16.662C18.14 33.46 17.574 36 17 36c-.574 0-1.14-2.54-1.7-2.594C6.71 32.566 0 25.426 0 16.744 0 7.497 7.611 0 17 0s17 7.497 17 16.744Z"/><path stroke="#fff" stroke-linecap="round" stroke-linejoin="round" stroke-width="1.5" d="M17 23.5v-6.875m3.125 6.875v-6.875m-6.25 6.875v-6.875M9.5 13.5l7.5-5 7.5 5m-1.25 10v-8.89a40.303 40.303 0 0 0-6.25-.485c-2.126 0-4.214.166-6.25.485v8.89m-1.25 0h15M17 11.625h.006v.006H17v-.006Z"/></svg>