<?xml version="1.0" encoding="utf-8"?><svg viewBox="0 0 205 143" xmlns="http://www.w3.org/2000/svg" xmlns:xlink="http://www.w3.org/1999/xlink"><style>:root>svg{display:none}:root>svg:target{display:block}</style><svg fill="none" viewBox="0 0 108 141" id="a" xmlns="http://www.w3.org/2000/svg"><path d="M100.238 23.535c6.6 11.2 6.8 22.6 6.8 23.8v91.2c0 .8-.8 1.6-2 1.6h-22.8c-1.2 0-2-.8-2-1.6v-23.2h-53v23.2c0 .8-.8 1.6-2 1.6h-22.8c-1.2 0-2-.8-2-1.6v-91.2c0-1.2.2-12.4 6.8-23.8 6.2-10.6 19.2-23.4 46.4-23.4 27.4 0 40.4 12.8 46.6 23.4Zm-73 68h53v-44c0-.4-.2-6.6-3.2-11.4-4.4-6.6-11.8-10-23.4-10-11.4 0-19 3.6-23.2 10.6-3 5.2-3.2 10.6-3.2 10.6v44.2Z" fill="#C25B3C"/></svg><svg fill="none" viewBox="0 0 205 142" id="m" xmlns="http://www.w3.org/2000/svg"><path d="M120.454.935h24.8c.6 0 1.6.4 1.8 1l57.2 137c.6 1.2-.2 2.2-1.8 2.2h-24.6c-.6 0-1.6-.4-1.8-1l-43-103.2-16.2 38.8c8.8 21 17.4 42.4 26.2 63.2.6 1.2-.2 2.2-1.8 2.2h-24.6c-.6 0-1.6-.6-1.8-1l-12.6-29.6-12.2 29.6c-.2.6-1.2 1-1.8 1h-24.8c-1.6 0-2.4-1-1.8-2.2l26.4-63.2c-6-14.2-10.2-24.4-16.2-38.8l-43 103.2c-.2.6-1.2 1-1.8 1h-24.6c-1.6 0-2.4-1-1.8-2.2l57-137c.2-.6 1.2-1 1.8-1h24.6c.6 0 1.6.4 1.8 1l16.4 39.6 16.4-39.6c.2-.4 1.2-1 1.8-1Z" fill="#C25B3C"/></svg><svg fill="none" viewBox="0 0 108 141" id="n" xmlns="http://www.w3.org/2000/svg"><path d="M82.434.135h22.8c1.2 0 2 .8 2 1.6v136.8c0 .8-.8 1.6-2 1.6h-22.8c-1.2 0-2-.8-2-1.6v-32.6h-53v32.6c0 .8-.8 1.6-2 1.6h-22.8c-1.2 0-2-.8-2-1.6V1.735c0-.8.8-1.6 2-1.6h22.8c1.2 0 2 .8 2 1.6v32.6h53v-32.6c0-.8.8-1.6 2-1.6Zm-55 79.8h53v-19.6h-53v19.6Z" fill="#C25B3C"/></svg><svg fill="none" viewBox="0 0 106 143" id="o" xmlns="http://www.w3.org/2000/svg"><path d="M52.83 104.935c-29 0-52.8-23.6-52.8-52.4 0-28.6 23.8-52.4 52.8-52.4 29 0 52.8 23.8 52.8 52.4 0 28.8-23.8 52.4-52.8 52.4Zm0-79c-14.4 0-26.2 11.8-26.2 26.6 0 15 11.8 26.6 26.2 26.6 14.6 0 26.2-11.6 26.2-26.6 0-14.8-11.6-26.6-26.2-26.6Zm46.6 92v22.6c0 .8-.8 1.6-2 1.6H7.23c-1.2 0-2-.8-2-1.6v-22.6c0-.8.8-1.6 2-1.6h90.2c1.2 0 2 .8 2 1.6Z" fill="#C25B3C"/></svg><svg fill="none" viewBox="0 0 96 141" id="r" xmlns="http://www.w3.org/2000/svg"><path d="M48 .135s47.4 0 47.4 41.4c0 41.6-47.4 41.6-47.4 41.6H27.2v55.4c0 .8-.8 1.6-2 1.6H2.4c-1.2 0-2-.8-2-1.6v-79.8c0-.8.8-1.6 2-1.6H21c-7-10.6-13.8-21.8-20.6-32.4v-23c0-.8.8-1.6 2-1.6H48Zm0 26H30.4l19.4 30.8c7.2 0 19-4 19-15.4 0-15.4-16.4-15.4-20.8-15.4Z" fill="#C25B3C"/></svg><svg fill="none" viewBox="0 0 103 141" id="u" xmlns="http://www.w3.org/2000/svg"><path d="M3.019.135h26.2c.8 0 1.6.4 1.8 1l21 60 22.6-60c.2-.6.8-1 1.6-1h24.4c1.4 0 2.2 1 1.6 2.2l-53.2 136.8c-.2.6-.8 1-1.6 1h-23.6c-1.4 0-2.2-1-1.6-2.2l15.8-42-36.8-93.6c-.6-1.2.2-2.2 1.8-2.2Z" fill="#C25B3C"/></svg><svg fill="none" viewBox="0 0 99 142" id="v" xmlns="http://www.w3.org/2000/svg"><path d="M95.446 41.135c0 16.4-8.8 25.6-19.4 30 22.2 7.6 21.4 29.2 21.4 29.2 0 39-40 40.8-49.4 40.8h-45.6c-1.2 0-2-.8-2-1.6V2.735c0-.8.8-1.6 2-1.6h45.6s47.4-1 47.4 40Zm-68.4-15v32h21s20.6 0 20.6-15.4c0-16.8-20.6-16.6-20.6-16.6h-21Zm21 89.4c8.8 0 22.6-2.4 22.6-15.8 0-16.6-22.6-15.4-22.6-15.4h-21v31.2h21Z" fill="#C25B3C"/></svg></svg>