<svg viewBox="0 0 246 51" fill="none" xmlns="http://www.w3.org/2000/svg" id="logo">
<path d="M51.7683 23.678H53.7659L63.9181 42.2871L74.0371 23.678H76.0347L77.4431 46.3295H75.6091L74.4301 26.9576L63.9181 46.2528L53.4055 26.9576L52.1939 46.3295H50.3599L51.7683 23.678Z" fill="#FBFBFB"/>
<path d="M99.3421 23.678L92.3339 37.2572L91.8399 38.2105C82.765 32.9216 82.1958 24.6446 82.1606 23.6833H80.1016C80.125 24.6001 80.6192 34.1074 90.8916 40.0404L90.3036 41.1749L87.6505 46.3295H89.6487L101.372 23.678H99.3421Z" fill="#FBFBFB"/>
<path d="M119.3 36.7376C118.88 37.7269 118.303 38.5909 117.572 39.3298C116.839 40.0689 115.983 40.6558 115.003 41.0906C114.023 41.5257 112.983 41.7428 111.885 41.7428C110.528 41.7428 109.268 41.4277 108.105 40.797C106.942 40.1668 105.983 39.297 105.229 38.1887V29.0259C105.983 27.9172 106.942 27.0483 108.105 26.4175C109.268 25.7871 110.528 25.4718 111.885 25.4718C112.983 25.4718 114.023 25.6836 115.003 26.1077C115.983 26.5315 116.839 27.1135 117.572 27.852C118.303 28.5914 118.88 29.4554 119.3 30.4444C119.72 31.4337 119.93 32.4823 119.93 33.591C119.93 34.6997 119.72 35.7487 119.3 36.7376ZM120.964 29.727C120.447 28.5207 119.741 27.4665 118.848 26.5642C117.953 25.6625 116.909 24.95 115.714 24.4283C114.518 23.9065 113.242 23.6457 111.885 23.6457C110.657 23.6457 109.466 23.8741 108.315 24.3306C107.162 24.7871 106.134 25.4393 105.229 26.2871V23.7761H103.42V46.3295H105.229V40.9274C106.134 41.7538 107.162 42.4002 108.315 42.8674C109.466 43.3346 110.657 43.5685 111.885 43.5685C113.242 43.5685 114.518 43.3077 115.714 42.7859C116.909 42.2642 117.953 41.5471 118.848 40.6341C119.741 39.7211 120.447 38.6614 120.964 37.4547C121.481 36.2484 121.74 34.9606 121.74 33.591C121.74 32.2215 121.481 30.9334 120.964 29.727Z" fill="#FBFBFB"/>
<path d="M144.099 38.5764C143.604 39.704 142.935 40.6887 142.093 41.5302C141.251 42.3728 140.266 43.0354 139.139 43.5183C138.011 44.0012 136.817 44.243 135.553 44.243C134.29 44.243 133.095 44.0012 131.968 43.5183C130.84 43.0354 129.856 42.3728 129.014 41.5302C128.171 40.6887 127.509 39.704 127.026 38.5764C126.543 37.4494 126.302 36.2418 126.302 34.9537C126.302 33.6903 126.543 32.4953 127.026 31.368C127.509 30.2411 128.171 29.2565 129.014 28.4139C129.856 27.5723 130.84 26.9091 131.968 26.4261C133.095 25.9429 134.29 25.7015 135.553 25.7015C136.817 25.7015 138.011 25.9429 139.139 26.4261C140.266 26.9091 141.251 27.5723 142.093 28.4139C142.935 29.2565 143.604 30.2411 144.099 31.368C144.595 32.4953 144.842 33.6903 144.842 34.9537C144.842 36.2418 144.595 37.4494 144.099 38.5764ZM144.842 23.6152V28.4777C144.461 27.9307 144.034 27.4199 143.56 26.9464C142.533 25.9188 141.331 25.1069 139.956 24.5124C138.582 23.9179 137.114 23.6206 135.553 23.6206C133.993 23.6206 132.525 23.9179 131.15 24.5124C129.775 25.1069 128.574 25.9188 127.546 26.9464C126.518 27.9746 125.707 29.1759 125.112 30.5505C124.518 31.9252 124.221 33.3931 124.221 34.9537C124.221 36.5144 124.518 37.9819 125.112 39.3565C125.707 40.7316 126.518 41.9391 127.546 42.9795C128.574 44.02 129.775 44.8371 131.15 45.4317C132.525 46.0262 133.993 46.3235 135.553 46.3235C137.114 46.3235 138.582 46.0262 139.956 45.4317C141.331 44.8371 142.533 44.02 143.56 42.9795C144.034 42.5004 144.461 41.9853 144.842 41.4352V46.293H146.98V23.6152H144.842Z" fill="#FBFBFB"/>
<path d="M168.203 23.6518H170.34V46.3295H168.203V23.6518ZM152.091 33.3489H169.882V35.4869H152.091V33.3489ZM151.557 23.6518H153.695V46.3295H151.557V23.6518Z" fill="#FBFBFB"/>
<path d="M184.097 25.7024C182.834 25.7024 181.638 25.9438 180.511 26.427C179.384 26.9099 178.399 27.5732 177.557 28.4148C176.714 29.2573 176.052 30.2419 175.569 31.3689C175.086 32.4962 174.845 33.6912 174.845 34.9546C174.845 36.2427 175.086 37.4503 175.569 38.5773C176.052 39.7049 176.714 40.6895 177.557 41.5311C178.399 42.3737 179.384 43.0363 180.511 43.5192C181.638 44.0021 182.834 44.2438 184.097 44.2438C185.36 44.2438 186.555 44.0021 187.683 43.5192C188.81 43.0363 189.794 42.3737 190.636 41.5311C191.478 40.6895 192.147 39.7049 192.643 38.5773C193.138 37.4503 193.386 36.2427 193.386 34.9546C193.386 33.6912 193.138 32.4962 192.643 31.3689C192.147 30.2419 191.478 29.2573 190.636 28.4148C189.794 27.5732 188.81 26.9099 187.683 26.427C186.555 25.9438 185.36 25.7024 184.097 25.7024ZM184.097 23.6215C185.658 23.6215 187.125 23.9188 188.5 24.5133C189.874 25.1078 191.076 25.9197 192.104 26.9473C193.132 27.9755 193.943 29.1767 194.538 30.5514C195.132 31.9261 195.43 33.394 195.43 34.9546C195.43 36.5152 195.132 37.9827 194.538 39.3574C193.943 40.7324 193.132 41.94 192.104 42.9805C191.076 44.0209 189.874 44.838 188.5 45.4325C187.125 46.0271 185.658 46.3243 184.097 46.3243C182.536 46.3243 181.069 46.0271 179.693 45.4325C178.319 44.838 177.117 44.0209 176.089 42.9805C175.061 41.94 174.25 40.7324 173.656 39.3574C173.061 37.9827 172.764 36.5152 172.764 34.9546C172.764 33.394 173.061 31.9261 173.656 30.5514C174.25 29.1767 175.061 27.9755 176.089 26.9473C177.117 25.9197 178.319 25.1078 179.693 24.5133C181.069 23.9188 182.536 23.6215 184.097 23.6215Z" fill="#FBFBFB"/>
<path d="M200.248 35.3839V44.1133H205.661C206.575 44.1133 207.363 43.993 208.024 43.7514C208.685 43.5101 209.231 43.1859 209.663 42.7792C210.095 42.3729 210.413 41.9022 210.616 41.3689C210.819 40.8352 210.921 40.2632 210.921 39.6532C210.921 39.0944 210.756 38.5607 210.426 38.0521C210.095 37.5442 209.637 37.0931 209.053 36.6991C208.468 36.3053 207.763 35.9878 206.938 35.7458C206.112 35.5046 205.203 35.3839 204.212 35.3839H200.248ZM200.248 25.5489V33.2491H204.174C205.953 33.2491 207.198 32.8679 207.91 32.1055C208.621 31.343 208.977 30.3902 208.977 29.2465C208.977 28.8403 208.894 28.4207 208.729 27.9883C208.564 27.5566 208.291 27.1629 207.91 26.8067C207.528 26.4513 207.033 26.1527 206.423 25.9108C205.813 25.6695 205.063 25.5489 204.174 25.5489H200.248ZM207.643 34.0878C209.371 34.3677 210.718 35.0027 211.683 35.9939C212.649 36.9847 213.132 38.2808 213.132 39.8819C213.132 41.4068 212.649 42.7094 211.683 43.7893C210.718 44.87 209.447 45.6127 207.871 46.0194C207.414 46.1468 206.823 46.2291 206.099 46.2671C205.375 46.305 204.58 46.3243 203.716 46.3243H198.113V23.6807L202.268 23.6428C203.894 23.6428 205.159 23.6875 206.061 23.7763C206.963 23.8654 207.732 24.0877 208.367 24.4432C209.282 24.9518 209.974 25.6631 210.445 26.578C210.915 27.4929 211.136 28.4333 211.111 29.399C211.086 30.5427 210.806 31.5592 210.273 32.4484C209.74 33.3383 208.863 33.8845 207.643 34.0878Z" fill="#FBFBFB"/>
<path d="M226.648 25.713C225.385 25.713 224.189 25.9544 223.062 26.4376C221.935 26.9205 220.95 27.5838 220.109 28.4254C219.266 29.268 218.604 30.2525 218.121 31.3795C217.638 32.5068 217.396 33.7018 217.396 34.9652C217.396 36.2534 217.638 37.4609 218.121 38.5879C218.604 39.7156 219.266 40.7002 220.109 41.5417C220.95 42.3843 221.935 43.0469 223.062 43.5298C224.189 44.0127 225.385 44.2544 226.648 44.2544C227.912 44.2544 229.106 44.0127 230.234 43.5298C231.361 43.0469 232.345 42.3843 233.188 41.5417C234.029 40.7002 234.698 39.7156 235.194 38.5879C235.689 37.4609 235.937 36.2534 235.937 34.9652C235.937 33.7018 235.689 32.5068 235.194 31.3795C234.698 30.2525 234.029 29.268 233.188 28.4254C232.345 27.5838 231.361 26.9205 230.234 26.4376C229.106 25.9544 227.912 25.713 226.648 25.713ZM226.648 23.6321C228.209 23.6321 229.676 23.9294 231.051 24.5239C232.426 25.1185 233.627 25.9303 234.655 26.9578C235.683 27.9861 236.495 29.1873 237.089 30.5621C237.684 31.9367 237.981 33.4046 237.981 34.9652C237.981 36.5259 237.684 37.9933 237.089 39.3681C236.495 40.7431 235.683 41.9506 234.655 42.9911C233.627 44.0315 232.426 44.8486 231.051 45.4431C229.676 46.0377 228.209 46.335 226.648 46.335C225.088 46.335 223.62 46.0377 222.245 45.4431C220.87 44.8486 219.668 44.0315 218.64 42.9911C217.613 41.9506 216.802 40.7431 216.207 39.3681C215.613 37.9933 215.315 36.5259 215.315 34.9652C215.315 33.4046 215.613 31.9367 216.207 30.5621C216.802 29.1873 217.613 27.9861 218.64 26.9578C219.668 25.9303 220.87 25.1185 222.245 24.5239C223.62 23.9294 225.088 23.6321 226.648 23.6321Z" fill="#FBFBFB"/>
<path d="M54.206 18.98H55.1057L60.7139 8.37244H59.8161L55.5604 16.576L51.3052 8.37244H50.3643L55.0686 17.3464L54.206 18.98Z" fill="#FBFBFB"/>
<path d="M62.409 17.4534C61.3934 16.4382 60.8857 15.1737 60.8857 13.6606C60.8857 12.1476 61.3934 10.8834 62.409 9.8678C63.4243 8.85254 64.6888 8.34455 66.2018 8.34455C67.3193 8.34455 68.3109 8.63081 69.1767 9.20331C70.0422 9.77582 70.6796 10.5394 71.0885 11.4933L70.3115 11.7591C69.9435 10.955 69.3982 10.3144 68.6758 9.83718C67.9531 9.36017 67.1286 9.12152 66.2018 9.12152C64.9204 9.12152 63.8505 9.55444 62.9917 10.4199C62.133 11.2857 61.7036 12.3658 61.7036 13.6606C61.7036 14.9558 62.133 16.0359 62.9917 16.9014C63.8505 17.7671 64.9204 18.1997 66.2018 18.1997C67.1286 18.1997 67.9531 17.9614 68.6758 17.4841C69.3982 17.0071 69.9435 16.3666 70.3115 15.5621L71.0885 15.828C70.6796 16.7822 70.0422 17.5454 69.1767 18.1179C68.3109 18.6904 67.3193 18.9767 66.2018 18.9767C64.6888 18.9767 63.4243 18.469 62.409 17.4534Z" fill="#FBFBFB"/>
<path d="M76.1136 18.2031C77.3591 18.2031 78.3832 17.796 79.184 16.9813C79.9855 16.1672 80.3859 15.2036 80.3859 14.0904V13.2762C80.1255 13.5615 79.564 13.758 78.7016 13.8666L76.2161 14.1518C75.449 14.2465 74.8298 14.467 74.3574 14.8131C73.885 15.1592 73.6485 15.6449 73.6485 16.2691C73.6485 16.8662 73.8777 17.3375 74.3363 17.6836C74.7955 18.0298 75.3875 18.2031 76.1136 18.2031ZM77.5104 8.3903C78.5914 8.3903 79.4787 8.67497 80.1699 9.24539C80.8616 9.81533 81.2072 10.5957 81.2072 11.5865V18.773H80.3859V16.5948C79.4 18.1826 77.9617 18.9768 76.0721 18.9768C75.0862 18.9768 74.2987 18.732 73.71 18.2435C73.1212 17.755 72.8271 17.0971 72.8271 16.2691C72.8271 15.4273 73.1312 14.766 73.741 14.2842C74.3502 13.8023 75.1754 13.4999 76.2161 13.3781L78.9065 13.0724C79.4 13.0187 79.7695 12.883 80.0159 12.6653C80.2624 12.4488 80.3859 12.1159 80.3859 11.6679C80.3859 10.8809 80.1217 10.2667 79.595 9.82527C79.0678 9.38444 78.3588 9.164 77.4688 9.164C76.6198 9.164 75.8738 9.37113 75.2302 9.78485C74.5861 10.1991 74.148 10.8604 73.9155 11.7698L73.1351 11.4846C73.4225 10.4395 73.9636 9.66243 74.7578 9.15346C75.5515 8.64449 76.4692 8.3903 77.5104 8.3903Z" fill="#FBFBFB"/>
<path d="M86.0304 15.8627C86.1872 14.9777 86.2657 13.7557 86.2657 12.1973V9.17989H92.4028V18.1893H85.1107C85.5668 17.524 85.8736 16.7483 86.0304 15.8627ZM94.7553 18.9821V18.1893H93.2584V8.37239H85.4106V12.1973C85.4106 13.7557 85.3212 14.9777 85.1431 15.8627C84.9649 16.7483 84.612 17.524 84.0844 18.1893H82.9082V18.9821H94.7553Z" fill="#FBFBFB"/>
<path d="M97.7689 13.2597V18.1893H101.339C102.118 18.1893 102.752 17.9555 103.24 17.488C103.729 17.0206 103.973 16.4329 103.973 15.7245C103.973 15.0163 103.729 14.4283 103.24 13.9609C102.752 13.4934 102.118 13.2597 101.339 13.2597H97.7689ZM101.339 18.9967H96.9189V8.37259H97.7689V12.4522H101.339C102.359 12.4522 103.194 12.7676 103.846 13.3978C104.497 14.0283 104.823 14.8038 104.823 15.7245C104.823 16.6454 104.497 17.421 103.846 18.0512C103.194 18.6816 102.359 18.9967 101.339 18.9967Z" fill="#FBFBFB"/>
<path d="M108.118 17.0113C108.915 17.815 109.911 18.2166 111.107 18.2166C112.302 18.2166 113.298 17.815 114.095 17.0113C114.892 16.2078 115.291 15.2016 115.291 13.9928C115.291 12.7843 114.892 11.7782 114.095 10.9744C113.298 10.1709 112.302 9.76898 111.107 9.76898C109.911 9.76898 108.915 10.1709 108.118 10.9744C107.321 11.7782 106.923 12.7843 106.923 13.9928C106.923 15.2016 107.321 16.2078 108.118 17.0113ZM111.107 9.01191C112.515 9.01191 113.697 9.49005 114.653 10.4464C115.61 11.4027 116.088 12.5851 116.088 13.9928C116.088 15.4009 115.61 16.5829 114.653 17.5392C113.697 18.4956 112.515 18.9738 111.107 18.9738C109.699 18.9738 108.517 18.4956 107.56 17.5392C106.604 16.5829 106.126 15.4009 106.126 13.9928C106.126 11.3498 106.348 9.39732 106.793 8.13528C107.238 6.87354 108.039 5.95704 109.194 5.38577C109.898 5.04053 110.964 4.74825 112.392 4.50915C113.82 4.27005 114.892 4.04436 115.61 3.83174V4.6287C115.158 4.77502 114.168 4.97735 112.641 5.23639C111.113 5.49537 110.071 5.76436 109.513 6.04329C108.012 6.7873 107.162 8.52718 106.963 11.2633C107.388 10.5594 107.962 10.0081 108.686 9.6096C109.41 9.21112 110.217 9.01191 111.107 9.01191Z" fill="#FBFBFB"/>
<path d="M121.005 18.2031C122.251 18.2031 123.275 17.796 124.076 16.9813C124.877 16.1672 125.277 15.2036 125.277 14.0904V13.2762C125.017 13.5615 124.456 13.758 123.593 13.8666L121.108 14.1518C120.341 14.2465 119.721 14.467 119.249 14.8131C118.777 15.1592 118.54 15.6449 118.54 16.2691C118.54 16.8662 118.769 17.3375 119.228 17.6836C119.687 18.0298 120.279 18.2031 121.005 18.2031ZM122.402 8.3903C123.483 8.3903 124.37 8.67497 125.061 9.24539C125.753 9.81533 126.099 10.5957 126.099 11.5865V18.773H125.277V16.5948C124.292 18.1826 122.853 18.9768 120.964 18.9768C119.978 18.9768 119.19 18.732 118.602 18.2435C118.013 17.755 117.719 17.0971 117.719 16.2691C117.719 15.4273 118.023 14.766 118.633 14.2842C119.242 13.8023 120.067 13.4999 121.108 13.3781L123.798 13.0724C124.292 13.0187 124.661 12.883 124.907 12.6653C125.154 12.4488 125.277 12.1159 125.277 11.6679C125.277 10.8809 125.013 10.2667 124.487 9.82527C123.959 9.38444 123.25 9.164 122.36 9.164C121.511 9.164 120.765 9.37113 120.122 9.78485C119.478 10.1991 119.04 10.8604 118.807 11.7698L118.027 11.4846C118.314 10.4395 118.855 9.66243 119.649 9.15346C120.443 8.64449 121.361 8.3903 122.402 8.3903Z" fill="#FBFBFB"/>
<path d="M7.12451 30.2454L7.91113 31.5709L18.2095 25.4605V19.9203L19.6154 19.0048L21.0529 19.9523V24.249H22.5943V20.9682L24.477 22.2091L25.3251 20.9223L19.6205 17.1619L13.8497 20.9199L14.6909 22.2115L16.668 20.924V24.5827L7.12451 30.2454Z" fill="#FBFBFB"/>
<path d="M17.2707 36.7515L19.6697 35.1894L22.0225 36.7402V44.6012L17.2707 44.6011V36.7515ZM34.7985 3.82262L27.076 11.4291V15.6436L19.6484 10.8267L7.12549 18.4566L8.04199 19.961L19.6192 12.9075L27.0723 17.7408L27.0817 24.2502L28.8434 24.2477L28.8356 18.8843L28.8376 18.8856V12.1667L34.7869 6.3068L40.6754 12.2168V44.6013L23.7841 44.6012V37.9014L25.1378 38.7937L26.1072 37.3228L19.6757 33.0833L13.1695 37.3202L14.1307 38.7963L15.5091 37.8987V44.6011L7.12574 44.6011V46.3627L42.437 46.3629V11.489L34.7985 3.82262Z" fill="#FBFBFB"/>
</svg>
