<svg width="205" height="142" fill="none" xmlns="http://www.w3.org/2000/svg"><path d="M120.454.935h24.8c.6 0 1.6.4 1.8 1l57.2 137c.6 1.2-.2 2.2-1.8 2.2h-24.6c-.6 0-1.6-.4-1.8-1l-43-103.2-16.2 38.8c8.8 21 17.4 42.4 26.2 63.2.6 1.2-.2 2.2-1.8 2.2h-24.6c-.6 0-1.6-.6-1.8-1l-12.6-29.6-12.2 29.6c-.2.6-1.2 1-1.8 1h-24.8c-1.6 0-2.4-1-1.8-2.2l26.4-63.2c-6-14.2-10.2-24.4-16.2-38.8l-43 103.2c-.2.6-1.2 1-1.8 1h-24.6c-1.6 0-2.4-1-1.8-2.2l57-137c.2-.6 1.2-1 1.8-1h24.6c.6 0 1.6.4 1.8 1l16.4 39.6 16.4-39.6c.2-.4 1.2-1 1.8-1Z" fill="#C25B3C"/></svg>