<?xml version="1.0" standalone="no"?>
<!DOCTYPE svg PUBLIC "-//W3C//DTD SVG 20010904//EN"
 "http://www.w3.org/TR/2001/REC-SVG-20010904/DTD/svg10.dtd">
<svg version="1.0" xmlns="http://www.w3.org/2000/svg"
 width="606.000000pt" height="606.000000pt" viewBox="0 0 606.000000 606.000000"
 preserveAspectRatio="xMidYMid meet">
<metadata>
Created by potrace 1.14, written by Peter Selinger 2001-2017
</metadata>
<g transform="translate(0.000000,606.000000) scale(0.100000,-0.100000)"
fill="#000000" stroke="none">
<path d="M4394 5852 c-83 -81 -256 -248 -384 -372 -129 -124 -261 -252 -295
-285 -34 -33 -111 -107 -171 -166 l-109 -105 0 -297 c0 -163 -1 -297 -3 -297
-3 0 -144 88 -262 165 -52 33 -180 115 -283 180 -103 66 -200 128 -215 137
-15 10 -34 21 -42 25 -8 5 -42 26 -75 47 -33 22 -91 59 -128 83 l-68 45 -182
-110 c-100 -60 -429 -256 -732 -436 -302 -180 -562 -336 -577 -347 -15 -10
-29 -19 -31 -19 -2 0 -69 -39 -148 -88 l-145 -87 25 -42 c14 -23 44 -71 66
-107 l41 -64 204 122 c616 369 1256 751 1263 754 4 2 51 30 104 63 54 32 101
59 106 59 7 0 206 -124 421 -264 44 -28 88 -55 98 -61 10 -5 103 -64 205 -130
103 -66 194 -123 202 -127 9 -4 48 -29 86 -55 l70 -48 1 -455 c1 -250 2 -458
3 -461 0 -3 57 -6 126 -6 l125 0 0 863 c0 731 2 864 14 871 8 4 126 116 262
248 261 254 307 298 479 464 l107 103 55 -53 c148 -145 370 -363 574 -564
l226 -223 0 -2301 0 -2301 -1223 0 -1224 0 -1 23 c-3 80 -1 918 2 921 2 2 44
-22 94 -55 49 -32 93 -59 97 -59 13 0 140 202 132 210 -11 10 -214 142 -234
152 -8 4 -54 34 -103 65 -277 183 -576 373 -585 373 -6 0 -59 -31 -119 -69
-59 -39 -188 -121 -286 -183 -97 -62 -210 -134 -250 -160 -39 -25 -112 -72
-162 -103 -49 -31 -98 -62 -108 -69 -16 -13 -13 -21 48 -112 36 -55 70 -100
75 -102 5 -2 35 14 67 35 32 22 74 49 94 61 l36 22 0 -475 0 -475 -608 0 -607
0 0 -105 0 -105 2529 0 2529 0 0 2488 0 2487 -29 30 c-15 17 -232 230 -481
475 -250 245 -470 462 -489 482 -20 21 -40 38 -46 38 -5 0 -78 -67 -161 -148z
m-1859 -4418 c33 -21 65 -41 70 -44 45 -23 95 -63 96 -78 1 -20 0 -1058 0
-1084 -1 -17 -24 -18 -344 -18 l-343 0 0 555 c1 365 5 558 11 564 6 6 84 57
174 114 l164 104 56 -37 c31 -20 83 -54 116 -76z"/>
<path d="M1944 3849 c-225 -144 -413 -264 -417 -269 -5 -4 19 -49 53 -99 55
-83 63 -91 78 -79 18 15 259 168 265 168 2 0 3 -116 3 -257 l0 -258 -210 -122
c-115 -68 -211 -123 -212 -123 -2 0 -49 -28 -106 -61 -57 -34 -132 -78 -168
-99 -36 -21 -127 -74 -203 -119 -76 -45 -142 -81 -146 -81 -4 0 -12 -5 -19
-12 -11 -11 -53 -36 -157 -94 -16 -9 -60 -34 -97 -55 l-67 -39 56 -90 c30 -50
59 -90 65 -90 5 0 64 32 131 71 67 40 136 79 152 89 17 9 87 50 158 91 70 41
135 79 145 84 68 39 567 330 652 380 58 34 138 81 178 104 l72 42 0 394 0 393
102 65 102 64 101 -65 c55 -35 102 -66 104 -68 2 -2 4 -140 5 -306 l1 -303
110 0 110 0 0 225 c0 145 4 225 10 225 6 0 65 -35 131 -77 67 -43 125 -78 130
-78 5 1 36 40 68 88 52 76 57 87 42 97 -9 5 -88 56 -174 113 -135 89 -220 143
-290 187 -32 20 -137 88 -207 134 -38 26 -86 57 -106 69 l-35 21 -410 -260z"/>
</g>
</svg>
